<svg width="97" height="3" fill="none" xmlns="http://www.w3.org/2000/svg"><path d="M1 1s2.821 1 4.967 1c2.145 0 3.027-1 4.967-1 2.176 0 3.899 1 5.598 1 1.88 0 3.733-1 6.141-1 2.67 0 4.778 1 6.863 1 2.265 0 4.503-1 7.405-1 2.552 0 4.508 1 6.502 1 1.753 0 3.536-1 5.78-1 2.535 0 4.522 1 6.501 1 2.04 0 4.07-1 6.683-1 2.539 0 4.52 1 6.502 1 1.981 0 3.962-1 6.502-1 2.126 0 3.757 1 5.418 1 1.48 0 2.982-1 4.876-1 2.126 0 3.758 1 5.419 1 1.48 0 2.982-1 4.876-1" stroke="#274AF2" stroke-width="2" stroke-linecap="round"/></svg>