<svg width="290" height="12" fill="none" xmlns="http://www.w3.org/2000/svg"><path d="M4 4s8.375 4 14.743 4c6.369 0 8.986-4 14.744-4 6.46 0 11.574 4 16.62 4 5.581 0 11.08-4 18.228-4 7.926 0 14.184 4 20.372 4 6.725 0 13.368-4 21.981-4 7.577 0 13.382 4 19.301 4 5.203 0 10.495-4 17.155-4 7.528 0 13.427 4 19.301 4 6.053 0 12.08-4 19.836-4 7.538 0 13.419 4 19.301 4 5.881 0 11.763-4 19.3-4 6.311 0 11.155 4 16.084 4 4.392 0 8.851-4 14.475-4 6.31 0 11.155 4 16.084 4 4.392 0 8.851-4 14.475-4" stroke="#274AF2" stroke-width="8" stroke-linecap="round"/></svg>