<svg width="249" height="123" fill="none" xmlns="http://www.w3.org/2000/svg"><path d="M2 121c7.41 0 8.398-8.891 23.96-7.067 23.178 2.716 38.876-1.547 51.992-27.32 20.715-40.704 72.503-15.043 84.472-29.496 11.968-14.453 26.873 3.43 35.016-25.806C207.546-4.973 238.649 7.939 250 2" stroke="#65FFAC" stroke-width="4" stroke-linecap="round"/><path d="M162.424 57.58c-11.969 14.575-63.757-11.302-84.472 29.744-13.116 25.989-28.814 30.289-51.992 27.55C10.398 113.034 9.41 122 2 122h248V2c-11.351 5.989-42.454-7.032-52.56 29.557-8.143 29.482-23.048 11.449-35.016 26.023z" fill="url(#paint0_linear_101_42)"/><defs><linearGradient id="paint0_linear_101_42" x1="126" y1="2" x2="126" y2="122" gradientUnits="userSpaceOnUse"><stop stop-color="#3AF791"/><stop offset="1" stop-color="#07E56E"/></linearGradient></defs></svg>