<svg width="250" height="123" fill="none" xmlns="http://www.w3.org/2000/svg"><path d="M2 121c7.293 0 17.753-30.903 34.198-30.903 22.963 0 7.381-88.097 32.477-36.9 26.254 53.563 30.754-10.766 65.444-10.766 16.73 0 29.938 47.501 53.389 28.755C203.478 58.42 227.269 15.816 250 2" stroke="#FFC9E0" stroke-width="4" stroke-linecap="round"/><path d="M36.198 90.837C19.753 90.837 9.293 122 2 122h248V2c-22.731 13.932-46.522 56.894-62.492 69.767-23.451 18.904-36.659-28.996-53.389-28.996-34.69 0-39.19 64.87-65.444 10.857C43.579 2 59.16 90.838 36.198 90.838z" fill="url(#paint0_linear_101_46)"/><defs><linearGradient id="paint0_linear_101_46" x1="126" y1="2" x2="126" y2="122" gradientUnits="userSpaceOnUse"><stop stop-color="#FF68A8"/><stop offset="1" stop-color="#FF1276"/></linearGradient></defs></svg>