<svg width="250" height="122" fill="none" xmlns="http://www.w3.org/2000/svg"><path d="M250 10.7c-35.429-11.835-51.667-21.302-66.675 40.237-16.482 67.586-30.754-11.05-65.444-11.05-16.73 0-29.938 48.75-53.389 29.511C48.522 56.297 24.731 131.39 2 117.21" stroke="#92EBFF" stroke-width="4" stroke-linecap="round"/><path d="M183.325 52.192c-16.482 69.319-30.754-11.333-65.444-11.333-16.73 0-29.938 50-53.389 30.268-13.089-11.014-31.432 38.736-50.139 49.037H2c4.1 2.623 8.236 2.267 12.353 0H250V10.923c-35.429-12.138-51.667-21.848-66.675 41.269z" fill="url(#paint0_linear_101_45)"/><defs><linearGradient id="paint0_linear_101_45" x1="126" y1="2" x2="126" y2="122" gradientUnits="userSpaceOnUse"><stop stop-color="#66E3FF"/><stop offset="1" stop-color="#25D8FF"/></linearGradient></defs></svg>