<svg width="321" height="74" fill="none" xmlns="http://www.w3.org/2000/svg"><path d="M321 7.205C275.429.125 254.542-5.54 235.237 31.28c-21.201 40.436-39.558-6.611-84.18-6.611-21.52 0-38.51 29.166-68.674 17.656C61.84 34.485 31.239 79.412 2 70.929" stroke="#92EBFF" stroke-width="4" stroke-linecap="round"/><path d="M235.237 32.115c-21.201 41.592-39.558-6.8-84.18-6.8-21.52 0-38.51 30-68.674 18.161-16.836-6.608-40.43 23.242-64.493 29.422H2c5.275 1.574 10.594 1.36 15.89 0H321V7.354C275.429.07 254.542-5.756 235.237 32.115z" fill="url(#paint0_linear_101_48)"/><defs><linearGradient id="paint0_linear_101_48" x1="161.5" y1="2" x2="161.5" y2="74" gradientUnits="userSpaceOnUse"><stop stop-color="#66E3FF"/><stop offset="1" stop-color="#25D8FF"/></linearGradient></defs></svg>