<svg width="321" height="76" fill="none" xmlns="http://www.w3.org/2000/svg"><path d="M2 73c9.38 0 22.836-18.438 43.99-18.438 29.536 0 9.493-52.562 41.773-22.015 33.771 31.957 39.558-6.424 84.18-6.424 21.52 0 38.51 28.34 68.674 17.156C261.159 35.662 291.761 10.243 321 2" stroke="#FFC9E0" stroke-width="4" stroke-linecap="round"/><path d="M45.99 56.783C24.835 56.783 11.38 76 2 76h319V2c-29.239 8.591-59.841 35.085-80.383 43.023-30.164 11.657-47.154-17.88-68.674-17.88-44.622 0-50.409 40.002-84.18 6.694C55.483 2 75.526 56.783 45.989 56.783z" fill="url(#paint0_linear_101_49)"/><defs><linearGradient id="paint0_linear_101_49" x1="161.5" y1="2" x2="161.5" y2="76" gradientUnits="userSpaceOnUse"><stop stop-color="#FF68A8"/><stop offset="1" stop-color="#FF1276"/></linearGradient></defs></svg>