<svg width="321" height="76" fill="none" xmlns="http://www.w3.org/2000/svg"><path d="M2 73.4c9.532 0 10.803-5.335 30.82-4.24 29.814 1.63 50.005-.929 66.876-16.392 26.646-24.423 93.26-9.026 108.655-17.698 15.396-8.672 34.567 2.058 45.041-15.483C266.392-2.184 306.399 5.563 321 2" stroke="#65FFAC" stroke-width="4" stroke-linecap="round"/><path d="M209.831 36.275c-15.506 8.987-82.598-6.97-109.434 18.342-16.992 16.026-37.329 18.678-67.356 16.988C12.88 70.471 11.6 76 2 76h321.287V2c-14.706 3.693-55-4.336-68.093 18.227-10.549 18.18-29.858 7.06-45.363 16.048z" fill="url(#paint0_linear_0_325)"/><defs><linearGradient id="paint0_linear_0_325" x1="162.643" y1="2" x2="162.643" y2="76" gradientUnits="userSpaceOnUse"><stop stop-color="#3AF791"/><stop offset="1" stop-color="#07E56E"/></linearGradient></defs></svg>